<svg width="37" height="33" fill="none" xmlns="http://www.w3.org/2000/svg"><path d="M33.917 4.278V3.055a.614.614 0 00-.617-.61h-3.7a.614.614 0 00-.617.61v1.223h-1.492l-1.579-2.734A3.088 3.088 0 0023.236 0h-9.472a3.089 3.089 0 00-2.675 1.542l-1.58 2.736H9.25V2.444a.614.614 0 00-.617-.61H3.7a.614.614 0 00-.617.61v1.834C1.381 4.28.002 5.646 0 7.333v17.11c.002 1.687 1.381 3.053 3.083 3.055h17.225c1.701 4.412 6.69 6.622 11.142 4.936 3.343-1.266 5.551-4.445 5.55-7.991V7.333c-.002-1.687-1.381-3.053-3.083-3.055zm-3.7-.612h2.466v.612h-2.466v-.612zm-25.9-.61h3.7v1.222h-3.7V3.055zm16.016 18.272c-.062.164-.128.33-.185.498-.038.12-.072.24-.105.362-.027.096-.062.19-.083.287a7.96 7.96 0 01-1.46.135c-4.428 0-8.017-3.557-8.017-7.944 0-4.388 3.59-7.944 8.017-7.944s8.017 3.556 8.017 7.944c0 .487-.045.973-.136 1.451-.1.023-.194.057-.292.083-.123.033-.24.065-.358.102-.174.055-.345.122-.514.184-.07.026-.142.047-.21.075 1.059-3.563-.998-7.303-4.594-8.352-3.596-1.05-7.37.988-8.428 4.551-1.06 3.563.997 7.303 4.593 8.353a6.847 6.847 0 003.834 0c-.03.07-.05.144-.08.215zm2.865-3.736c-.02.015-.037.034-.056.049a8.425 8.425 0 00-1.64 1.624c-.015.02-.034.036-.049.057-2.595 1.616-6.02.842-7.652-1.73a5.47 5.47 0 011.745-7.583c2.595-1.616 6.021-.842 7.652 1.73a5.458 5.458 0 010 5.853zm5.169 14.184c-4.087 0-7.4-3.283-7.4-7.333a7.192 7.192 0 011.418-4.315.468.468 0 00.032-.05c.176-.228.365-.447.567-.654.05-.052.091-.113.143-.165.257-.255.533-.49.826-.704a.44.44 0 00.057-.038 7.327 7.327 0 013.003-1.283c.446-.084.9-.125 1.354-.124 4.086 0 7.4 3.283 7.4 7.333 0 4.05-3.314 7.333-7.4 7.333zm7.4-11.733c-.062-.102-.13-.2-.196-.3a2.053 2.053 0 00-.07-.11 9.536 9.536 0 00-.431-.574l-.112-.132a8.798 8.798 0 00-.428-.466c-.028-.028-.054-.058-.082-.085a8.807 8.807 0 00-.534-.482l-.14-.112a8.655 8.655 0 00-.519-.385l-.083-.06a8.47 8.47 0 00-.622-.375c-.053-.03-.106-.058-.16-.087a8.646 8.646 0 00-.609-.29l-.07-.032a8.725 8.725 0 00-.696-.253l-.177-.053a8.442 8.442 0 00-.696-.178l-.044-.01a8.67 8.67 0 00-.755-.115l-.19-.02a9.936 9.936 0 00-.786-.036c-.243 0-.48.013-.713.032.061-.416.093-.835.096-1.254 0-5.062-4.141-9.166-9.25-9.166s-9.25 4.104-9.25 9.166 4.141 9.166 9.25 9.166a9.169 9.169 0 001.266-.096 8.59 8.59 0 00-.033.707c0 .278.018.554.045.828.008.078.018.156.027.233.028.213.062.424.105.633.009.046.013.093.023.14H3.082a1.843 1.843 0 01-1.85-1.834V7.333c0-1.013.829-1.833 1.85-1.833h6.784a.62.62 0 00.535-.306L12.16 2.15c.328-.571.94-.925 1.603-.927h9.472a1.853 1.853 0 011.603.927l1.758 3.043a.62.62 0 00.536.308h6.784c1.021 0 1.85.82 1.85 1.833v12.71z" fill="#867777"/><path d="M6.167 7.332a.614.614 0 00-.616.611V22.61c0 .337.276.611.616.611a.614.614 0 00.617-.611V7.943a.614.614 0 00-.617-.611zm24.666-.609c-1.021 0-1.85.82-1.85 1.833 0 1.012.829 1.833 1.85 1.833 1.022 0 1.85-.82 1.85-1.833a1.842 1.842 0 00-1.85-1.833zm0 2.444a.614.614 0 01-.616-.611c0-.338.276-.611.616-.611.341 0 .617.273.617.61a.614.614 0 01-.617.612zM28.982 23.83v-4.277a.614.614 0 00-.617-.612.614.614 0 00-.616.611v4.278h-4.317a.614.614 0 00-.617.611c0 .338.276.611.617.611h4.317v4.278c0 .337.276.61.616.61a.613.613 0 00.617-.61v-4.278H33.3c.34 0 .616-.273.616-.61a.614.614 0 00-.616-.612h-4.317z" fill="#867777"/></svg>