<svg width="13" height="16" fill="none" xmlns="http://www.w3.org/2000/svg"><path d="M12.646 1.508H8.608v-.76C8.608.337 8.293 0 7.906 0H5.094c-.387 0-.702.336-.702.749v.759H.354c-.196 0-.354.168-.354.376s.158.377.354.377h.655l.447 12.387c.027.758.607 1.352 1.32 1.352h7.449c.712 0 1.292-.594 1.319-1.352l.447-12.387h.655c.196 0 .354-.169.354-.377s-.158-.376-.354-.376zM5.1.753h2.8v.755H5.1V.753zm5.737 13.866c-.012.352-.282.628-.612.628h-7.45c-.33 0-.6-.276-.612-.628L1.717 2.261h9.566l-.446 12.358z" fill="#333"/><path d="M4.348 5.67c-.004-.205-.161-.37-.354-.37h-.007c-.195.005-.35.177-.346.385l.11 6.144c.004.206.162.37.354.37h.007c.195-.004.35-.176.347-.384L4.348 5.67zM6.5 5.3c-.195 0-.354.17-.354.377v6.145c0 .208.159.377.354.377.195 0 .354-.169.354-.377V5.677c0-.208-.159-.376-.354-.376zm2.512 0c-.194-.004-.356.162-.36.37l-.11 6.145c-.005.208.15.38.346.384h.007c.192 0 .35-.164.353-.37l.111-6.144c.004-.208-.151-.38-.347-.384z" fill="#333"/></svg>